<mxfile host="app.diagrams.net" modified="2021-10-15T18:51:11.335Z" agent="5.0 (Windows NT 10.0; Win64; x64) AppleWebKit/537.36 (KHTML, like Gecko) Chrome/94.0.4606.81 Safari/537.36" etag="bDJtBVOqZrM-cunPasPq" version="15.5.4" type="github">
  <diagram id="nnV6EA0MDo6wHBtzFhtK" name="Page-1">
    <mxGraphModel dx="1422" dy="794" grid="1" gridSize="11" guides="1" tooltips="1" connect="1" arrows="1" fold="1" page="1" pageScale="1" pageWidth="1400" pageHeight="850" math="0" shadow="0">
      <root>
        <mxCell id="0" />
        <mxCell id="1" parent="0" />
        <mxCell id="QFcDTs5_IMO44881ND-N-2" value="" style="rounded=0;whiteSpace=wrap;html=1;fillColor=#545454;fontColor=#212529;" vertex="1" parent="1">
          <mxGeometry width="176" height="660" as="geometry" />
        </mxCell>
        <mxCell id="QFcDTs5_IMO44881ND-N-3" value="" style="rounded=0;whiteSpace=wrap;html=1;fontColor=#F2F2F2;" vertex="1" parent="1">
          <mxGeometry x="176" width="836" height="660" as="geometry" />
        </mxCell>
        <mxCell id="QFcDTs5_IMO44881ND-N-33" value="" style="rounded=0;whiteSpace=wrap;html=1;fontSize=15;fontColor=#D6D6D6;fillColor=#FFFFFF;" vertex="1" parent="1">
          <mxGeometry x="176" width="836" height="60" as="geometry" />
        </mxCell>
        <mxCell id="QFcDTs5_IMO44881ND-N-43" value="" style="sketch=0;outlineConnect=0;fontColor=#232F3E;gradientColor=none;strokeColor=#232F3E;fillColor=#ffffff;dashed=0;verticalLabelPosition=bottom;verticalAlign=top;align=center;html=1;fontSize=12;fontStyle=0;aspect=fixed;shape=mxgraph.aws4.resourceIcon;resIcon=mxgraph.aws4.user;" vertex="1" parent="1">
          <mxGeometry x="924" y="19" width="22" height="22" as="geometry" />
        </mxCell>
        <mxCell id="QFcDTs5_IMO44881ND-N-44" value="balcantara" style="text;html=1;strokeColor=none;fillColor=none;align=center;verticalAlign=middle;whiteSpace=wrap;rounded=0;fontSize=15;fontColor=#212529;fontFamily=Times New Roman;" vertex="1" parent="1">
          <mxGeometry x="858" y="15.5" width="66" height="29" as="geometry" />
        </mxCell>
        <mxCell id="QFcDTs5_IMO44881ND-N-46" value="Search" style="rounded=0;whiteSpace=wrap;html=1;fontSize=14;fontColor=#A1A1A1;strokeColor=#6E6E6E;fillColor=#FFFFFF;labelPosition=center;verticalLabelPosition=middle;align=left;verticalAlign=middle;" vertex="1" parent="1">
          <mxGeometry x="363" y="143" width="418" height="27" as="geometry" />
        </mxCell>
        <mxCell id="QFcDTs5_IMO44881ND-N-47" value="" style="rounded=0;whiteSpace=wrap;html=1;fontSize=14;fontColor=#212529;strokeColor=#6E6E6E;fillColor=#919191;" vertex="1" parent="1">
          <mxGeometry x="781" y="143" width="55" height="27" as="geometry" />
        </mxCell>
        <mxCell id="QFcDTs5_IMO44881ND-N-45" value="" style="html=1;verticalLabelPosition=bottom;align=center;labelBackgroundColor=#ffffff;verticalAlign=top;strokeWidth=2;strokeColor=#212529;shadow=0;dashed=0;shape=mxgraph.ios7.icons.looking_glass;fontSize=14;fontColor=#212529;fillColor=#FFFFFF;" vertex="1" parent="1">
          <mxGeometry x="800.25" y="146" width="13.75" height="21" as="geometry" />
        </mxCell>
        <mxCell id="QFcDTs5_IMO44881ND-N-48" value="&lt;font color=&quot;#000000&quot;&gt;Consultar Registros&lt;/font&gt;" style="text;html=1;strokeColor=none;fillColor=none;align=center;verticalAlign=middle;whiteSpace=wrap;rounded=0;fontSize=14;fontColor=#A1A1A1;" vertex="1" parent="1">
          <mxGeometry x="176" y="77" width="143" height="39" as="geometry" />
        </mxCell>
        <mxCell id="QFcDTs5_IMO44881ND-N-49" value="" style="endArrow=none;html=1;rounded=0;fontSize=17;fontColor=#000000;strokeColor=#919191;fillColor=#C9C9C9;" edge="1" parent="1">
          <mxGeometry width="50" height="50" relative="1" as="geometry">
            <mxPoint y="44" as="sourcePoint" />
            <mxPoint x="176" y="44" as="targetPoint" />
          </mxGeometry>
        </mxCell>
        <mxCell id="QFcDTs5_IMO44881ND-N-50" value="" style="endArrow=none;html=1;rounded=0;fontSize=17;fontColor=#000000;strokeColor=#919191;fillColor=#C9C9C9;entryX=1;entryY=0.209;entryDx=0;entryDy=0;entryPerimeter=0;" edge="1" parent="1" target="QFcDTs5_IMO44881ND-N-2">
          <mxGeometry width="50" height="50" relative="1" as="geometry">
            <mxPoint y="138" as="sourcePoint" />
            <mxPoint x="50" y="88" as="targetPoint" />
          </mxGeometry>
        </mxCell>
        <mxCell id="QFcDTs5_IMO44881ND-N-51" value="" style="endArrow=none;html=1;rounded=0;fontSize=17;fontColor=#000000;strokeColor=#919191;fillColor=#C9C9C9;" edge="1" parent="1" target="QFcDTs5_IMO44881ND-N-2">
          <mxGeometry width="50" height="50" relative="1" as="geometry">
            <mxPoint y="91" as="sourcePoint" />
            <mxPoint x="50" y="41" as="targetPoint" />
            <Array as="points">
              <mxPoint x="176" y="91" />
            </Array>
          </mxGeometry>
        </mxCell>
        <mxCell id="QFcDTs5_IMO44881ND-N-52" value="&lt;font style=&quot;font-size: 14px&quot; face=&quot;Times New Roman&quot;&gt;Consultar&lt;/font&gt;" style="text;html=1;strokeColor=none;fillColor=none;align=center;verticalAlign=middle;whiteSpace=wrap;rounded=0;fontSize=17;fontColor=#000000;" vertex="1" parent="1">
          <mxGeometry x="11" y="11" width="60" height="30" as="geometry" />
        </mxCell>
        <mxCell id="QFcDTs5_IMO44881ND-N-53" value="Text" style="text;html=1;strokeColor=none;fillColor=none;align=center;verticalAlign=middle;whiteSpace=wrap;rounded=0;fontFamily=Times New Roman;fontSize=14;fontColor=#000000;" vertex="1" parent="1">
          <mxGeometry x="11" y="99" width="60" height="30" as="geometry" />
        </mxCell>
        <mxCell id="QFcDTs5_IMO44881ND-N-54" value="Text" style="text;html=1;strokeColor=none;fillColor=none;align=center;verticalAlign=middle;whiteSpace=wrap;rounded=0;fontFamily=Times New Roman;fontSize=14;fontColor=#000000;" vertex="1" parent="1">
          <mxGeometry x="11" y="55" width="60" height="30" as="geometry" />
        </mxCell>
        <mxCell id="QFcDTs5_IMO44881ND-N-55" value="" style="shape=image;html=1;verticalAlign=top;verticalLabelPosition=bottom;labelBackgroundColor=#ffffff;imageAspect=0;aspect=fixed;image=https://cdn2.iconfinder.com/data/icons/essential-web-5/50/maximize-expand-large-extensive-increase-128.png;fontFamily=Times New Roman;fontSize=4;fontColor=#000000;strokeColor=#F2F2F2;fillColor=#919191;" vertex="1" parent="1">
          <mxGeometry x="957" y="22.75" width="14.5" height="14.5" as="geometry" />
        </mxCell>
        <mxCell id="QFcDTs5_IMO44881ND-N-59" value="" style="rounded=0;whiteSpace=wrap;html=1;fontFamily=Times New Roman;fontSize=4;fontColor=#828282;strokeColor=#212529;fillColor=#545454;align=left;" vertex="1" parent="1">
          <mxGeometry x="176" y="649" width="836" height="11" as="geometry" />
        </mxCell>
        <mxCell id="QFcDTs5_IMO44881ND-N-60" value="&lt;font style=&quot;font-size: 13px;&quot; color=&quot;#141414&quot;&gt;&lt;font style=&quot;font-size: 13px;&quot;&gt;Buscar &lt;/font&gt;Cedula&lt;/font&gt;" style="text;html=1;strokeColor=none;fillColor=none;align=center;verticalAlign=middle;whiteSpace=wrap;rounded=0;fontFamily=Times New Roman;fontSize=13;fontColor=#828282;fontStyle=4" vertex="1" parent="1">
          <mxGeometry x="341" y="116" width="132" height="33" as="geometry" />
        </mxCell>
      </root>
    </mxGraphModel>
  </diagram>
</mxfile>
